<?xml version="1.0" encoding="UTF-8"?><svg id="uuid-7f45a347-0943-4f01-9ba9-62337507f686" xmlns="http://www.w3.org/2000/svg" viewBox="0 0 236.1 166.1"><defs><style>.uuid-992a28b7-c7ca-4f38-bb1c-f60132fe9716{fill:#3c5b82;}</style></defs><g id="uuid-c852e906-921c-4b1f-bd56-4341dfa94afa"><g><path class="uuid-992a28b7-c7ca-4f38-bb1c-f60132fe9716" d="M134.05,166.1h-62.85c-.75,0-1.47-.3-2-.83L.83,96.9C.29,96.36,0,95.63,0,94.86L.73,32.75c.03-2.51,3.06-3.75,4.84-1.97L136.05,161.26c1.79,1.79,.52,4.84-2,4.84Z"/><path class="uuid-992a28b7-c7ca-4f38-bb1c-f60132fe9716" d="M233.26,166.1h-62.85c-.75,0-1.47-.3-2-.83L70.63,67.49c-.53-.53-.83-1.26-.83-2.01l.2-62.64c0-2.52,3.06-3.78,4.84-2L235.27,161.26c1.79,1.79,.52,4.84-2,4.84Z"/></g></g></svg>