<?xml version="1.0" encoding="UTF-8"?><svg id="uuid-13c122a3-e3e8-465b-b89c-f77f846c2e98" xmlns="http://www.w3.org/2000/svg" viewBox="0 0 404.05 371.09"><defs><style>.uuid-3402f8e8-7cd7-4871-8e14-2f18231e47c4{fill:none;stroke:#3c5b82;stroke-miterlimit:10;stroke-width:3px;}.uuid-77598573-23e1-4a50-b00d-98211d5f3c61,.uuid-08a5e499-9b3b-46c3-bee5-ae1e1b3166a6,.uuid-b091e028-ef09-4951-9180-a363d378c4f0{fill:#3c5b82;}.uuid-f303bfa2-ab8d-4062-8f3b-3305342c24c4{letter-spacing:-.02em;}.uuid-08a5e499-9b3b-46c3-bee5-ae1e1b3166a6{font-family:'AlibabaPuHuiTi_2_85_Bold-GBpc-EUC-H', 'Alibaba PuHuiTi 2.0';font-size:48px;letter-spacing:0em;}.uuid-26184e47-a889-4d31-b55d-5b4c03eaed42{letter-spacing:-.09em;}.uuid-b091e028-ef09-4951-9180-a363d378c4f0{font-family:SFPro-Bold, 'SF Pro';font-size:72px;font-variation-settings:'wdth' 100, 'opsz' 28, 'wght' 700;font-weight:700;}.uuid-0158f341-20c6-44a2-a239-7586c6471085{letter-spacing:0em;}.uuid-688310d3-f839-4754-939b-2ae7cb91103a{letter-spacing:0em;}</style></defs><g><line class="uuid-3402f8e8-7cd7-4871-8e14-2f18231e47c4" x1="241.41" y1="283.79" x2="404.05" y2="283.79"/><line class="uuid-3402f8e8-7cd7-4871-8e14-2f18231e47c4" y1="283.79" x2="162.63" y2="283.79"/><circle class="uuid-77598573-23e1-4a50-b00d-98211d5f3c61" cx="202.02" cy="283.79" r="7.09"/></g><text class="uuid-08a5e499-9b3b-46c3-bee5-ae1e1b3166a6" transform="translate(107.15 355.92)"><tspan x="0" y="0">数蕴洞察</tspan></text><text class="uuid-b091e028-ef09-4951-9180-a363d378c4f0" transform="translate(6.45 249.03)"><tspan class="uuid-f303bfa2-ab8d-4062-8f3b-3305342c24c4" x="0" y="0">D</tspan><tspan class="uuid-26184e47-a889-4d31-b55d-5b4c03eaed42" x="48.66" y="0">AT</tspan><tspan class="uuid-0158f341-20c6-44a2-a239-7586c6471085" x="128.84" y="0">A</tspan><tspan class="uuid-688310d3-f839-4754-939b-2ae7cb91103a" x="177.99" y="0">SIFTS:</tspan></text><g><path class="uuid-77598573-23e1-4a50-b00d-98211d5f3c61" d="M218.02,166.1h-62.85c-.75,0-1.47-.3-2-.83L84.8,96.9c-.54-.54-.84-1.27-.83-2.04l.73-62.12c.03-2.51,3.06-3.75,4.84-1.97L220.03,161.26c1.79,1.79,.52,4.84-2,4.84Z"/><path class="uuid-77598573-23e1-4a50-b00d-98211d5f3c61" d="M317.23,166.1h-62.85c-.75,0-1.47-.3-2-.83l-97.78-97.78c-.53-.53-.83-1.26-.83-2.01l.2-62.64c0-2.52,3.06-3.78,4.84-2l160.42,160.42c1.79,1.79,.52,4.84-2,4.84Z"/></g></svg>